<svg width="400" height="360" viewBox="0 0 400 360" fill="none" xmlns="http://www.w3.org/2000/svg">
  <defs>
    <linearGradient id="cubeTop" x1="120" y1="90" x2="280" y2="180" gradientUnits="userSpaceOnUse">
      <stop offset="0" stop-color="#a5f3ff"/>
      <stop offset="1" stop-color="#22d3ee"/>
    </linearGradient>
    <linearGradient id="cubeLeft" x1="120" y1="135" x2="200" y2="280" gradientUnits="userSpaceOnUse">
      <stop offset="0" stop-color="#0e7490"/>
      <stop offset="1" stop-color="#083344"/>
    </linearGradient>
    <linearGradient id="cubeRight" x1="200" y1="180" x2="280" y2="280" gradientUnits="userSpaceOnUse">
      <stop offset="0" stop-color="#22d3ee"/>
      <stop offset="1" stop-color="#0e7490"/>
    </linearGradient>
    <radialGradient id="glow" cx="0.5" cy="0.42" r="0.55">
      <stop offset="0" stop-color="#22d3ee" stop-opacity="0.35"/>
      <stop offset="1" stop-color="#22d3ee" stop-opacity="0"/>
    </radialGradient>
    <radialGradient id="baseGlow" cx="0.5" cy="0.5" r="0.5">
      <stop offset="0" stop-color="#22d3ee" stop-opacity="0.55"/>
      <stop offset="1" stop-color="#22d3ee" stop-opacity="0"/>
    </radialGradient>
  </defs>

  <circle cx="200" cy="170" r="190" fill="url(#glow)"/>

  <g opacity="0.35" stroke="#22d3ee" stroke-width="1">
    <path d="M200 258 L340 328 L200 398 L60 328 Z"/>
    <path d="M200 258 L200 398 M60 328 L340 328" opacity="0.5"/>
    <path d="M130 293 L270 293 M130 363 L270 363" opacity="0.35"/>
  </g>
  <ellipse cx="200" cy="330" rx="140" ry="26" fill="url(#baseGlow)"/>

  <g>
    <path d="M200 90 L280 135 L200 180 L120 135 Z" fill="url(#cubeTop)" stroke="#67e8f9" stroke-width="1.5" stroke-linejoin="round"/>
    <path d="M120 135 L200 180 L200 280 L120 235 Z" fill="url(#cubeLeft)" stroke="#22d3ee" stroke-width="1.5" stroke-linejoin="round"/>
    <path d="M200 180 L280 135 L280 235 L200 280 Z" fill="url(#cubeRight)" stroke="#22d3ee" stroke-width="1.5" stroke-linejoin="round"/>

    <path d="M155 112 L200 137 M245 112 L200 137" stroke="#0891b2" stroke-width="1" opacity="0.5"/>

    <circle cx="200" cy="137" r="20" fill="#03131a" stroke="#f0feff" stroke-width="2"/>
    <path d="M188 149 L212 125" stroke="#f0feff" stroke-width="2" stroke-linecap="round"/>
    <circle cx="200" cy="137" r="4" fill="#67e8f9"/>
  </g>

  <g stroke="#67e8f9" stroke-width="1" opacity="0.55">
    <circle cx="200" cy="180" r="3" fill="#67e8f9" stroke="none"/>
    <circle cx="120" cy="135" r="2.5" fill="#67e8f9" stroke="none"/>
    <circle cx="280" cy="135" r="2.5" fill="#67e8f9" stroke="none"/>
    <circle cx="120" cy="235" r="2.5" fill="#67e8f9" stroke="none"/>
    <circle cx="280" cy="235" r="2.5" fill="#67e8f9" stroke="none"/>
    <circle cx="200" cy="280" r="2.5" fill="#67e8f9" stroke="none"/>
  </g>
</svg>
